<?xml version="1.0" standalone="no"?>
<!DOCTYPE svg PUBLIC "-//W3C//DTD SVG 20010904//EN"
 "http://www.w3.org/TR/2001/REC-SVG-20010904/DTD/svg10.dtd">
<svg version="1.0" xmlns="http://www.w3.org/2000/svg"
 width="500.000000pt" height="500.000000pt" viewBox="0 0 500.000000 500.000000"
 preserveAspectRatio="xMidYMid meet">
<metadata>
Created by potrace 1.14, written by Peter Selinger 2001-2017
</metadata>
<g transform="translate(0.000000,500.000000) scale(0.100000,-0.100000)"
fill="#000000" stroke="none">
<path d="M2703 3734 l-113 -111 0 -372 0 -372 109 -110 109 -109 407 0 407 0
114 114 114 113 0 363 0 362 -113 114 -114 114 -319 0 c-175 1 -357 2 -404 3
l-85 2 -112 -111z m917 -484 l0 -360 -400 0 -400 0 0 360 0 360 400 0 400 0 0
-360z"/>
<path d="M1110 3725 l0 -115 245 0 245 0 0 -475 0 -475 115 0 115 0 0 475 0
475 245 0 245 0 0 115 0 115 -605 0 -605 0 0 -115z"/>
<path d="M2110 2235 l0 -115 -381 0 -381 0 -114 -114 -114 -114 0 -362 0 -362
114 -114 114 -114 387 0 386 0 115 114 114 113 0 592 0 591 -120 0 -120 0 0
-115z m0 -705 l0 -360 -380 0 -380 0 0 360 0 360 380 0 380 0 0 -360z"/>
<path d="M2720 2012 l-110 -109 0 -373 0 -373 109 -108 109 -109 412 0 411 0
110 109 109 109 0 373 0 372 -109 109 -109 108 -411 0 -412 0 -109 -108z m920
-482 l0 -360 -400 0 -400 0 0 360 0 360 400 0 400 0 0 -360z"/>
</g>
</svg>
