<?xml version="1.0" encoding="UTF-8"?>
<svg xmlns="http://www.w3.org/2000/svg" xmlns:xlink="http://www.w3.org/1999/xlink" width="16pt" height="16pt" viewBox="0 0 16 16" version="1.1">
<g id="surface1">
<path style=" stroke:none;fill-rule:evenodd;fill:rgb(0%,0%,0%);fill-opacity:1;" d="M 1.359375 0.046875 C 0.707031 0.226562 0.164062 0.792969 0.03125 1.4375 C 0.0078125 1.5625 0 3.09375 0.0078125 7.171875 L 0.015625 12.734375 L 0.0859375 12.917969 C 0.289062 13.460938 0.695312 13.867188 1.238281 14.070312 L 1.421875 14.140625 L 4.652344 14.148438 C 7.261719 14.15625 7.878906 14.148438 7.867188 14.117188 C 7.78125 13.898438 7.648438 13.421875 7.605469 13.191406 L 7.554688 12.90625 L 4.644531 12.90625 C 1.4375 12.90625 1.597656 12.914062 1.414062 12.714844 C 1.238281 12.523438 1.25 12.871094 1.25 7.070312 C 1.25 1.109375 1.234375 1.59375 1.464844 1.398438 C 1.652344 1.242188 1.460938 1.246094 7.457031 1.257812 L 13.113281 1.265625 L 13.242188 1.351562 C 13.316406 1.398438 13.40625 1.496094 13.445312 1.570312 L 13.515625 1.703125 L 13.523438 4.691406 L 13.53125 7.675781 L 13.835938 7.777344 C 14.003906 7.835938 14.277344 7.949219 14.445312 8.035156 C 14.613281 8.117188 14.757812 8.1875 14.765625 8.1875 C 14.800781 8.1875 14.78125 1.671875 14.746094 1.480469 C 14.625 0.816406 14.0625 0.21875 13.390625 0.046875 C 13.128906 -0.0195312 1.605469 -0.0195312 1.359375 0.046875 M 2.894531 3.085938 C 2.5625 3.167969 2.453125 3.394531 2.453125 4 C 2.453125 4.789062 2.570312 4.914062 3.3125 4.933594 C 4.167969 4.953125 4.3125 4.816406 4.3125 4 C 4.3125 3.398438 4.246094 3.242188 3.929688 3.109375 C 3.816406 3.0625 3.050781 3.042969 2.894531 3.085938 M 5.953125 3.132812 C 5.617188 3.25 5.53125 3.425781 5.53125 4.039062 C 5.53125 4.539062 5.558594 4.648438 5.722656 4.804688 C 5.90625 4.976562 5.789062 4.96875 8.929688 4.96875 L 11.832031 4.96875 L 11.96875 4.898438 C 12.042969 4.859375 12.148438 4.773438 12.203125 4.707031 L 12.296875 4.589844 L 12.308594 4.101562 C 12.320312 3.4375 12.226562 3.222656 11.882812 3.125 C 11.71875 3.082031 6.082031 3.085938 5.953125 3.132812 M 2.78125 6.257812 C 2.363281 6.46875 2.28125 7.546875 2.652344 7.882812 C 2.992188 8.191406 3.980469 8.121094 4.210938 7.773438 C 4.335938 7.585938 4.34375 6.644531 4.222656 6.464844 C 4.03125 6.1875 3.164062 6.0625 2.78125 6.257812 M 5.890625 6.230469 C 5.601562 6.359375 5.53125 6.535156 5.53125 7.117188 C 5.53125 7.675781 5.574219 7.796875 5.828125 7.953125 L 5.980469 8.046875 L 8.03125 8.054688 L 10.082031 8.066406 L 10.316406 7.957031 C 10.839844 7.71875 11.445312 7.566406 11.980469 7.539062 L 12.316406 7.523438 L 12.308594 7.046875 C 12.296875 6.515625 12.269531 6.4375 12.035156 6.277344 L 11.925781 6.203125 L 8.957031 6.195312 C 6.539062 6.191406 5.96875 6.195312 5.890625 6.230469 M 11.703125 8.765625 C 8.792969 9.277344 7.703125 12.894531 9.847656 14.921875 C 12 16.957031 15.5625 15.628906 15.875 12.667969 C 16.125 10.332031 14.011719 8.359375 11.703125 8.765625 M 2.828125 9.308594 C 2.519531 9.449219 2.453125 9.605469 2.453125 10.21875 C 2.453125 10.972656 2.578125 11.101562 3.308594 11.121094 C 4.164062 11.140625 4.3125 11.003906 4.3125 10.203125 C 4.3125 9.605469 4.25 9.445312 3.953125 9.308594 C 3.773438 9.226562 3.011719 9.226562 2.828125 9.308594 M 5.925781 9.296875 C 5.613281 9.40625 5.53125 9.589844 5.53125 10.1875 C 5.53125 11.066406 5.617188 11.125 6.855469 11.125 L 7.679688 11.125 L 7.734375 10.929688 C 7.855469 10.484375 8.144531 9.902344 8.441406 9.496094 C 8.527344 9.382812 8.59375 9.28125 8.59375 9.269531 C 8.59375 9.226562 6.050781 9.25 5.925781 9.296875 M 12.90625 11.09375 L 12.90625 11.71875 L 14.125 11.71875 L 14.125 12.90625 L 12.90625 12.90625 L 12.90625 14.125 L 11.71875 14.125 L 11.71875 12.90625 L 10.46875 12.90625 L 10.46875 11.71875 L 11.71875 11.71875 L 11.71875 10.46875 L 12.90625 10.46875 L 12.90625 11.09375 "/>
</g>
</svg>
